<?xml version="1.0" encoding="UTF-8"?>
<svg height="128px" viewBox="0 0 128 128" width="128px" xmlns="http://www.w3.org/2000/svg" xmlns:xlink="http://www.w3.org/1999/xlink">
    <radialGradient id="a" cx="0" cy="0" gradientTransform="matrix(-0 -68.999999 22.3696 -0 85.455847 87.545404)" gradientUnits="userSpaceOnUse" r="1">
        <stop offset="0" stop-color="#7a4814"/>
        <stop offset="1" stop-color="#391f04"/>
    </radialGradient>
    <radialGradient id="b" cx="0" cy="0" gradientTransform="matrix(-3.500222 31.00002 -31.00002 -3.500222 88.955816 53.044542)" gradientUnits="userSpaceOnUse" r="1">
        <stop offset="0" stop-color="#c06b27"/>
        <stop offset="1" stop-color="#851714"/>
    </radialGradient>
    <radialGradient id="c" cx="0" cy="0" gradientTransform="matrix(18.571099 18.571099 -18.571099 18.571099 85.598046 43.687093)" gradientUnits="userSpaceOnUse" r="1">
        <stop offset="0" stop-color="#f7c482" stop-opacity="0.698039"/>
        <stop offset="1" stop-color="#f0a04b" stop-opacity="0.698039"/>
    </radialGradient>
    <radialGradient id="d" cx="0" cy="0" gradientTransform="matrix(-15.909903 15.909903 -12.020815 -12.020815 83.386553 44.475691)" gradientUnits="userSpaceOnUse" r="1">
        <stop offset="0.706522" stop-opacity="0.568627"/>
        <stop offset="1" stop-opacity="0"/>
    </radialGradient>
    <path d="m 52.457031 35.542969 h 55 c 4.417969 0 8 3.582031 8 8 v 64 c 0 4.417969 -3.582031 8 -8 8 h -55 z m 0 0" fill="#5d8bbe"/>
    <path d="m 36.457031 19.542969 l 16 16 v 80 l -16 -16 z m 0 0" fill="#5d8bbe"/>
    <path d="m 36.457031 19.542969 l -16 16 v 80 l 16 -16 z m 0 0" fill="#5d8bbe"/>
    <path d="m 12.457031 43.542969 c 0 -4.417969 3.582031 -8 8 -8 v 80 c -4.417969 0 -8 -3.582031 -8 -8 z m 0 0" fill="#5d8bbe"/>
    <g fill="none" stroke="#a1bde2">
        <path d="m 87.457032 87.542968 h 12 v 12 h -12 z m 0 0"/>
        <path d="m 87.457032 75.542968 h 12 v 12 h -12 z m 0 0"/>
        <path d="m 87.457032 63.542968 h 12 v 12 h -12 z m 0 0"/>
        <path d="m 87.457032 51.542968 h 12 v 12 h -12 z m 0 0"/>
        <path d="m 75.457032 87.542968 h 12 v 12 h -12 z m 0 0"/>
        <path d="m 75.457032 75.542968 h 12 v 12 h -12 z m 0 0"/>
        <path d="m 75.457032 63.542968 h 12 v 12 h -12 z m 0 0"/>
        <path d="m 75.457032 51.542968 h 12 v 12 h -12 z m 0 0"/>
        <path d="m 63.457032 87.542968 h 12 v 12 h -12 z m 0 0"/>
        <path d="m 63.457032 75.542968 h 12 v 12 h -12 z m 0 0"/>
        <path d="m 63.457032 63.542968 h 12 v 12 h -12 z m 0 0"/>
        <path d="m 63.457032 51.542968 h 12 v 12 h -12 z m 0 0"/>
        <path d="m 52.101563 87.398437 l 0.148437 0.144531 h 11.207032 v 12 h -10.792969 l -0.707031 -0.707031 v -11.582031 z m 0 0"/>
        <path d="m 44.457032 91.335937 v -11.582031 l 7.5 7.5 v 11.582031 z m 0 0"/>
        <path d="m 36.957032 83.835937 v -11.582031 l 7.5 7.5 v 11.582031 z m 0 0"/>
        <path d="m 36.457032 71.753906 l 0.5 0.5 v 10.582031 l -8 8 v -11.582031 z m 0 0"/>
        <path d="m 52.101563 75.398437 l 0.148437 0.144531 h 11.207032 v 12 h -10.792969 l -0.707031 -0.707031 v -11.582031 z m 0 0"/>
        <path d="m 44.457032 79.335937 v -11.582031 l 7.5 7.5 v 11.582031 z m 0 0"/>
        <path d="m 36.957032 71.835937 v -11.582031 l 7.5 7.5 v 11.582031 z m 0 0"/>
        <path d="m 36.457032 59.753906 l 0.5 0.5 v 10.582031 l -8 8 v -11.582031 z m 0 0"/>
        <path d="m 52.101563 63.398437 l 0.148437 0.144531 h 11.207032 v 12 h -10.792969 l -0.707031 -0.707031 v -11.582031 z m 0 0"/>
        <path d="m 44.457032 67.335937 v -11.582031 l 7.5 7.5 v 11.582031 z m 0 0"/>
        <path d="m 36.957032 59.835937 v -11.582031 l 7.5 7.5 v 11.582031 z m 0 0"/>
        <path d="m 36.457032 47.753906 l 0.5 0.5 v 10.582031 l -8 8 v -11.582031 z m 0 0"/>
        <path d="m 52.101563 51.398437 l 0.148437 0.144531 h 11.207032 v 12 h -10.792969 l -0.707031 -0.707031 v -11.582031 z m 0 0"/>
        <path d="m 44.457032 55.335937 v -11.582031 l 7.5 7.5 v 11.582031 z m 0 0"/>
        <path d="m 36.957032 47.835937 v -11.582031 l 7.5 7.5 v 11.582031 z m 0 0"/>
        <path d="m 36.457032 35.753906 l 0.5 0.5 v 10.582031 l -8 8 v -11.582031 z m 0 0"/>
        <path d="m 25.457032 94.542968 v -47" stroke-linecap="round"/>
    </g>
    <path d="m 36.457031 19.542969 l 16 16 v 80 l -16 -16 z m 0 0" fill-opacity="0.101961"/>
    <path d="m 36.457031 19.542969 l -16 16 v 80 l 16 -16 z m 0 0" fill="#ffffff" fill-opacity="0.101961"/>
    <path d="m 54.144531 59 l 25.796875 -25.796875 c 3.125 -3.125 8.1875 -3.125 11.3125 0 l 25.828125 25.828125 c 3.125 3.125 3.125 8.1875 0 11.3125 l -25.796875 25.796875 c -3.125 3.125 -8.191406 3.125 -11.3125 0 l -25.828125 -25.828125 c -3.125 -3.121094 -3.125 -8.1875 0 -11.3125 z m 0 0"/>
    <path d="m 54.113281 50.03125 l 25.828125 -25.828125 c 3.125 -3.125 8.1875 -3.125 11.3125 0 l 25.828125 25.828125 c 3.125 3.125 3.125 8.1875 0 11.3125 l -25.828125 25.828125 c -3.125 3.125 -8.1875 3.125 -11.3125 0 l -25.828125 -25.828125 c -3.125 -3.125 -3.125 -8.1875 0 -11.3125 z m 0 0" fill="url(#a)"/>
    <path d="m 54.113281 41.03125 l 25.828125 -25.828125 c 3.125 -3.125 8.1875 -3.125 11.3125 0 l 25.828125 25.828125 c 3.125 3.125 3.125 8.1875 0 11.3125 l -25.828125 25.828125 c -3.125 3.125 -8.1875 3.125 -11.3125 0 l -25.828125 -25.828125 c -3.125 -3.125 -3.125 -8.1875 0 -11.3125 z m 0 0" fill="url(#b)"/>
    <path d="m 54.113281 38.03125 l 25.828125 -25.828125 c 3.125 -3.125 8.1875 -3.125 11.3125 0 l 25.828125 25.828125 c 3.125 3.125 3.125 8.1875 0 11.3125 l -25.828125 25.828125 c -3.125 3.125 -8.1875 3.125 -11.3125 0 l -25.828125 -25.828125 c -3.125 -3.125 -3.125 -8.1875 0 -11.3125 z m 0 0" fill="url(#c)"/>
    <path d="m 81.679688 40.535156 c -0.410157 0.210938 -0.457032 0.96875 -0.148438 2.273438 c 1.910156 2.132812 3.871094 3.496094 5.882812 4.09375 l 0.164063 -0.464844 c -0.804687 -1.203125 -1.101563 -2.109375 -0.894531 -2.71875 l 0.597656 -1.523438 c 0.90625 -0.507812 1.054688 -1.464843 0.449219 -2.867187 l -4.246094 0.296875 z m 16.96875 -8.183594 l 3.945312 3.941407 l 0.597656 2.121093 c -3.335937 3.933594 -7.332031 8.128907 -11.984375 12.582032 l -0.148437 1.96875 c 0.820312 1.613281 0.824218 2.824218 0.019531 3.632812 c -0.511719 0.90625 -1.625 1.613282 -3.347656 2.121094 c -1.304688 -0.90625 -2.464844 -1.160156 -3.480469 -0.765625 c -1.007812 0.410156 -2.019531 1.222656 -3.035156 2.4375 c -1.710938 0.300781 -2.722656 0.195313 -3.03125 -0.3125 l -3.332032 -3.632813 l 0.449219 -2.269531 c 1.921875 -1.523437 2.632813 -3.144531 2.136719 -4.855469 l -4.410156 -5.003906 l -3.628906 -4.523437 l -0.445313 -1.675781 l 2.566406 -2.570313 l 4.09375 -1.375 l 4.242188 -0.59375 l 1.507812 -0.613281 h 1.824219 l 4.542969 -1.527344 l 4.390625 -0.445312 l 1.375 -0.449219 h 2.71875 z m 0 0" fill="url(#d)"/>
    <path d="m 59.40625 67.960938 l 5.65625 5.65625 c 0.78125 0.78125 0.78125 2.046874 0 2.828124 s -2.046875 0.78125 -2.828125 0 l -5.65625 -5.65625 c -0.78125 -0.78125 -0.78125 -2.050781 0 -2.828124 c 0.78125 -0.78125 2.046875 -0.78125 2.828125 0 z m 0 0" fill="#fdf9f0"/>
    <path d="m 71.40625 79.960938 l 5.65625 5.65625 c 0.78125 0.78125 0.78125 2.046874 0 2.828124 s -2.046875 0.78125 -2.828125 0 l -5.65625 -5.65625 c -0.78125 -0.78125 -0.78125 -2.050781 0 -2.828124 c 0.78125 -0.78125 2.046875 -0.78125 2.828125 0 z m 0 0" fill="#fdf9f0"/>
</svg>
