<?xml version="1.0" encoding="UTF-8"?>
<svg height="128px" viewBox="0 0 128 128" width="128px" xmlns="http://www.w3.org/2000/svg" xmlns:xlink="http://www.w3.org/1999/xlink">
    <linearGradient id="a" gradientUnits="userSpaceOnUse" x1="49.237521" x2="122.506717" y1="79.777651" y2="79.777651">
        <stop offset="0" stop-color="#391f04"/>
        <stop offset="0.11956" stop-color="#7a4814"/>
        <stop offset="0.416435" stop-color="#391f04"/>
        <stop offset="0.577893" stop-color="#391f04"/>
        <stop offset="0.853935" stop-color="#7a4814"/>
        <stop offset="0.973727" stop-color="#391f04"/>
    </linearGradient>
    <radialGradient id="b" cx="0" cy="0" gradientTransform="matrix(0 25.807699 -25.3846 0 85.58372 47.42465)" gradientUnits="userSpaceOnUse" r="1">
        <stop offset="0" stop-color="#c06b27"/>
        <stop offset="1" stop-color="#851714"/>
    </radialGradient>
    <radialGradient id="c" cx="0" cy="0" gradientTransform="matrix(0 30.5 -30 0 85.58372 43.277651)" gradientUnits="userSpaceOnUse" r="1">
        <stop offset="0" stop-color="#f7c482" stop-opacity="0.698039"/>
        <stop offset="1" stop-color="#f0a04b" stop-opacity="0.698039"/>
    </radialGradient>
    <radialGradient id="d" cx="0" cy="0" gradientTransform="matrix(0 26 -20 0 85.58372 47.777651)" gradientUnits="userSpaceOnUse" r="1">
        <stop offset="0.706522" stop-opacity="0.568627"/>
        <stop offset="1" stop-opacity="0"/>
    </radialGradient>
    <path d="m 52.582031 35.777344 h 55 c 4.417969 0 8 3.582031 8 8 v 64 c 0 4.417968 -3.582031 8 -8 8 h -55 z m 0 0" fill="#5d8bbe"/>
    <path d="m 36.582031 19.777344 l 16 16 v 80 l -16 -16 z m 0 0" fill="#5d8bbe"/>
    <path d="m 36.582031 19.777344 l -16 16 v 80 l 16 -16 z m 0 0" fill="#5d8bbe"/>
    <path d="m 12.582031 43.777344 c 0 -4.417969 3.582031 -8 8 -8 v 80 c -4.417969 0 -8 -3.582032 -8 -8 z m 0 0" fill="#5d8bbe"/>
    <g fill="none" stroke="#a1bde2">
        <path d="m 87.582031 87.777344 h 12 v 12 h -12 z m 0 0"/>
        <path d="m 87.582031 75.777344 h 12 v 12 h -12 z m 0 0"/>
        <path d="m 87.582031 63.777344 h 12 v 12 h -12 z m 0 0"/>
        <path d="m 87.582031 51.777344 h 12 v 12 h -12 z m 0 0"/>
        <path d="m 75.582031 87.777344 h 12 v 12 h -12 z m 0 0"/>
        <path d="m 75.582031 75.777344 h 12 v 12 h -12 z m 0 0"/>
        <path d="m 75.582031 63.777344 h 12 v 12 h -12 z m 0 0"/>
        <path d="m 75.582031 51.777344 h 12 v 12 h -12 z m 0 0"/>
        <path d="m 63.582031 87.777344 h 12 v 12 h -12 z m 0 0"/>
        <path d="m 63.582031 75.777344 h 12 v 12 h -12 z m 0 0"/>
        <path d="m 63.582031 63.777344 h 12 v 12 h -12 z m 0 0"/>
        <path d="m 63.582031 51.777344 h 12 v 12 h -12 z m 0 0"/>
        <path d="m 52.230469 87.632813 l 0.144531 0.144531 h 11.207031 v 12 h -10.792969 l -0.707031 -0.707031 v -11.585938 z m 0 0"/>
        <path d="m 44.582031 91.570313 v -11.585938 l 7.5 7.5 v 11.585938 z m 0 0"/>
        <path d="m 37.082031 84.070313 v -11.585938 l 7.5 7.5 v 11.585938 z m 0 0"/>
        <path d="m 29.082031 79.484375 l 7.5 -7.5 l 0.5 0.5 v 10.585938 l -8 8 z m 0 0"/>
        <path d="m 52.230469 75.632813 l 0.144531 0.144531 h 11.207031 v 12 h -10.792969 l -0.707031 -0.707031 v -11.585938 z m 0 0"/>
        <path d="m 44.582031 79.570313 v -11.585938 l 7.5 7.5 v 11.585938 z m 0 0"/>
        <path d="m 37.082031 72.070313 v -11.585938 l 7.5 7.5 v 11.585938 z m 0 0"/>
        <path d="m 29.082031 67.484375 l 7.5 -7.5 l 0.5 0.5 v 10.585938 l -8 8 z m 0 0"/>
        <path d="m 52.230469 63.632813 l 0.144531 0.144531 h 11.207031 v 12 h -10.792969 l -0.707031 -0.707031 v -11.585938 z m 0 0"/>
        <path d="m 44.582031 67.570313 v -11.585938 l 7.5 7.5 v 11.585938 z m 0 0"/>
        <path d="m 37.082031 60.070313 v -11.585938 l 7.5 7.5 v 11.585938 z m 0 0"/>
        <path d="m 29.082031 55.484375 l 7.5 -7.5 l 0.5 0.5 v 10.585938 l -8 8 z m 0 0"/>
        <path d="m 52.230469 51.632813 l 0.144531 0.144531 h 11.207031 v 12 h -10.792969 l -0.707031 -0.707031 v -11.585938 z m 0 0"/>
        <path d="m 44.582031 55.570313 v -11.585938 l 7.5 7.5 v 11.585938 z m 0 0"/>
        <path d="m 37.082031 48.070313 v -11.585938 l 7.5 7.5 v 11.585938 z m 0 0"/>
        <path d="m 29.082031 43.484375 l 7.5 -7.5 l 0.5 0.5 v 10.585938 l -8 8 z m 0 0"/>
        <path d="m 25.582031 94.777344 v -47" stroke-linecap="round"/>
    </g>
    <path d="m 36.582031 19.777344 l 16 16 v 80 l -16 -16 z m 0 0" fill-opacity="0.101961"/>
    <path d="m 36.582031 19.777344 l -16 16 v 80 l 16 -16 z m 0 0" fill="#ffffff" fill-opacity="0.101961"/>
    <path d="m 63.582031 21.777344 h 44 c 4.421875 0 8 3.582031 8 8 v 45.042968 c 0 4.417969 -3.578125 8 -8 8 h -44 c -4.417969 0 -8 -3.582031 -8 -8 v -45.042968 c 0 -4.417969 3.582031 -8 8 -8 z m 0 0"/>
    <path d="m 63.582031 18.777344 h 44 c 4.421875 0 8 3.582031 8 8 v 45 c 0 4.417968 -3.578125 8 -8 8 h -44 c -4.417969 0 -8 -3.582032 -8 -8 v -45 c 0 -4.417969 3.582031 -8 8 -8 z m 0 0" fill="url(#a)"/>
    <path d="m 63.582031 15.929688 h 44 c 4.421875 0 8 3.582031 8 8 v 45 c 0 4.417968 -3.578125 8 -8 8 h -44 c -4.417969 0 -8 -3.582032 -8 -8 v -45 c 0 -4.417969 3.582031 -8 8 -8 z m 0 0" fill="url(#b)"/>
    <path d="m 63.582031 12.777344 h 44 c 4.421875 0 8 3.582031 8 8 v 45 c 0 4.417968 -3.578125 8 -8 8 h -44 c -4.417969 0 -8 -3.582032 -8 -8 v -45 c 0 -4.417969 3.582031 -8 8 -8 z m 0 0" fill="url(#c)"/>
    <path d="m 70.277344 78.777344 h 11 c 1.101562 0 2 0.894531 2 2 c 0 1.105468 -0.898438 2 -2 2 h -11 c -1.105469 0 -2 -0.894532 -2 -2 c 0 -1.105469 0.894531 -2 2 -2 z m 0 0" fill="#fdf9f0"/>
    <path d="m 89.890625 78.777344 h 11 c 1.105469 0 2 0.894531 2 2 c 0 1.105468 -0.894531 2 -2 2 h -11 c -1.105469 0 -2 -0.894532 -2 -2 c 0 -1.105469 0.894531 -2 2 -2 z m 0 0" fill="#fdf9f0"/>
    <path d="m 80.757812 45.019531 c -0.164062 0.511719 0.421876 1.175781 1.75 1.996094 c 3.335938 0.183594 6.082032 -0.308594 8.230469 -1.476563 l -0.246093 -0.519531 c -1.65625 -0.328125 -2.652344 -0.828125 -2.980469 -1.503906 l -0.765625 -1.75 c 0.328125 -1.167969 -0.335938 -2.078125 -1.996094 -2.734375 l -3.253906 3.746094 z m 7.246094 -20.753906 h 6.507813 l 2.242187 1.257813 c 0.492188 5.996093 0.65625 12.75 0.492188 20.261718 l 1.503906 1.75 c 2.007812 0.65625 3.007812 1.648438 3.007812 2.980469 c 0.328126 1.167969 -0.007812 2.671875 -1.011718 4.511719 c -1.820313 0.328125 -2.988282 1.074218 -3.5 2.242187 c -0.492188 1.167969 -0.65625 2.671875 -0.492188 4.511719 c -1.164062 1.660156 -2.085937 2.40625 -2.761718 2.242188 l -5.742188 -0.246094 l -1.503906 -2.242188 c 0.328125 -2.84375 -0.417969 -4.765625 -2.242188 -5.769531 l -7.765625 -0.492187 l -6.726562 -0.738282 l -1.75 -1.011718 v -4.238282 l 2.242187 -4.511718 l 3.007813 -3.992188 l 0.738281 -1.75 l 1.503906 -1.503906 l 2.488282 -5.003906 l 3.253906 -3.992188 l 0.765625 -1.503906 l 2.242187 -2.242188 z m 0 0" fill="url(#d)"/>
</svg>
