<?xml version="1.0" encoding="UTF-8" standalone="no"?>
<svg
   height="128px"
   viewBox="0 0 128 128"
   width="128px"
   version="1.1"
   id="svg101"
   sodipodi:docname="com.github.kinten108101.SteamVPK.Devel.svg"
   inkscape:version="1.3 (0e150ed6c4, 2023-07-21)"
   xmlns:inkscape="http://www.inkscape.org/namespaces/inkscape"
   xmlns:sodipodi="http://sodipodi.sourceforge.net/DTD/sodipodi-0.dtd"
   xmlns="http://www.w3.org/2000/svg"
   xmlns:svg="http://www.w3.org/2000/svg">
  <defs
     id="defs101" />
  <sodipodi:namedview
     id="namedview101"
     pagecolor="#ffffff"
     bordercolor="#000000"
     borderopacity="0.25"
     inkscape:showpageshadow="2"
     inkscape:pageopacity="0.0"
     inkscape:pagecheckerboard="0"
     inkscape:deskcolor="#d1d1d1"
     inkscape:zoom="6.9453125"
     inkscape:cx="64"
     inkscape:cy="64"
     inkscape:window-width="1920"
     inkscape:window-height="998"
     inkscape:window-x="0"
     inkscape:window-y="0"
     inkscape:window-maximized="1"
     inkscape:current-layer="svg101" />
  <filter
     id="a"
     height="1"
     width="1"
     x="0"
     y="0">
    <feColorMatrix
       color-interpolation-filters="sRGB"
       values="0 0 0 0 1 0 0 0 0 1 0 0 0 0 1 0 0 0 1 0"
       id="feColorMatrix1" />
  </filter>
  <radialGradient
     id="b"
     cx="0"
     cy="0"
     gradientTransform="matrix(-0 -68.999999 22.3696 -0 85.455847 87.545404)"
     gradientUnits="userSpaceOnUse"
     r="1">
    <stop
       offset="0"
       stop-color="#7a4814"
       id="stop1" />
    <stop
       offset="1"
       stop-color="#391f04"
       id="stop2" />
  </radialGradient>
  <radialGradient
     id="c"
     cx="0"
     cy="0"
     gradientTransform="matrix(-3.500222 31.00002 -31.00002 -3.500222 88.955816 53.044542)"
     gradientUnits="userSpaceOnUse"
     r="1">
    <stop
       offset="0"
       stop-color="#c06b27"
       id="stop3" />
    <stop
       offset="1"
       stop-color="#851714"
       id="stop4" />
  </radialGradient>
  <radialGradient
     id="d"
     cx="0"
     cy="0"
     gradientTransform="matrix(18.571099 18.571099 -18.571099 18.571099 85.598046 43.687093)"
     gradientUnits="userSpaceOnUse"
     r="1">
    <stop
       offset="0"
       stop-color="#f7c482"
       stop-opacity="0.698039"
       id="stop5" />
    <stop
       offset="1"
       stop-color="#f0a04b"
       stop-opacity="0.698039"
       id="stop6" />
  </radialGradient>
  <radialGradient
     id="e"
     cx="0"
     cy="0"
     gradientTransform="matrix(-15.909903 15.909903 -12.020815 -12.020815 83.386553 44.475691)"
     gradientUnits="userSpaceOnUse"
     r="1">
    <stop
       offset="0.706522"
       stop-opacity="0.568627"
       id="stop7" />
    <stop
       offset="1"
       stop-opacity="0"
       id="stop8" />
  </radialGradient>
  <clipPath
     id="f">
    <rect
       height="128"
       width="128"
       id="rect8" />
  </clipPath>
  <clipPath
     id="g">
    <rect
       height="128"
       width="128"
       id="rect9" />
  </clipPath>
  <mask
     id="h">
    <g
       filter="url(#a)"
       id="g52">
      <g
         clip-path="url(#g)"
         filter="url(#a)"
         id="g51">
        <g
           clip-path="url(#f)"
           id="g50">
          <path
             d="m 52.457031 35.542969 h 55 c 4.417969 0 8 3.582031 8 8 v 64 c 0 4.417969 -3.582031 8 -8 8 h -55 z m 0 0"
             fill="#5d8bbe"
             id="path9" />
          <path
             d="m 36.457031 19.542969 l 16 16 v 80 l -16 -16 z m 0 0"
             fill="#5d8bbe"
             id="path10" />
          <path
             d="m 36.457031 19.542969 l -16 16 v 80 l 16 -16 z m 0 0"
             fill="#5d8bbe"
             id="path11" />
          <path
             d="m 12.457031 43.542969 c 0 -4.417969 3.582031 -8 8 -8 v 80 c -4.417969 0 -8 -3.582031 -8 -8 z m 0 0"
             fill="#5d8bbe"
             id="path12" />
          <path
             d="m 83.001181 82.998079 h 12 v 12 h -12 z m 0 0"
             fill="none"
             stroke="#a1bde2"
             transform="matrix(1 0 0 1 4.455851 4.544889)"
             id="path13" />
          <path
             d="m 83.001181 70.998079 h 12 v 12 h -12 z m 0 0"
             fill="none"
             stroke="#a1bde2"
             transform="matrix(1 0 0 1 4.455851 4.544889)"
             id="path14" />
          <path
             d="m 83.001181 58.998079 h 12 v 12 h -12 z m 0 0"
             fill="none"
             stroke="#a1bde2"
             transform="matrix(1 0 0 1 4.455851 4.544889)"
             id="path15" />
          <path
             d="m 83.001181 46.998079 h 12 v 12 h -12 z m 0 0"
             fill="none"
             stroke="#a1bde2"
             transform="matrix(1 0 0 1 4.455851 4.544889)"
             id="path16" />
          <path
             d="m 71.001181 82.998079 h 12 v 12 h -12 z m 0 0"
             fill="none"
             stroke="#a1bde2"
             transform="matrix(1 0 0 1 4.455851 4.544889)"
             id="path17" />
          <path
             d="m 71.001181 70.998079 h 12 v 12 h -12 z m 0 0"
             fill="none"
             stroke="#a1bde2"
             transform="matrix(1 0 0 1 4.455851 4.544889)"
             id="path18" />
          <path
             d="m 71.001181 58.998079 h 12 v 12 h -12 z m 0 0"
             fill="none"
             stroke="#a1bde2"
             transform="matrix(1 0 0 1 4.455851 4.544889)"
             id="path19" />
          <path
             d="m 71.001181 46.998079 h 12 v 12 h -12 z m 0 0"
             fill="none"
             stroke="#a1bde2"
             transform="matrix(1 0 0 1 4.455851 4.544889)"
             id="path20" />
          <path
             d="m 59.001181 82.998079 h 12 v 12 h -12 z m 0 0"
             fill="none"
             stroke="#a1bde2"
             transform="matrix(1 0 0 1 4.455851 4.544889)"
             id="path21" />
          <path
             d="m 59.001181 70.998079 h 12 v 12 h -12 z m 0 0"
             fill="none"
             stroke="#a1bde2"
             transform="matrix(1 0 0 1 4.455851 4.544889)"
             id="path22" />
          <path
             d="m 59.001181 58.998079 h 12 v 12 h -12 z m 0 0"
             fill="none"
             stroke="#a1bde2"
             transform="matrix(1 0 0 1 4.455851 4.544889)"
             id="path23" />
          <path
             d="m 59.001181 46.998079 h 12 v 12 h -12 z m 0 0"
             fill="none"
             stroke="#a1bde2"
             transform="matrix(1 0 0 1 4.455851 4.544889)"
             id="path24" />
          <path
             d="m 47.645712 82.853548 l 0.148437 0.144531 h 11.207032 v 12 h -10.792969 l -0.707031 -0.707031 v -11.582031 z m 0 0"
             fill="none"
             stroke="#a1bde2"
             transform="matrix(1 0 0 1 4.455851 4.544889)"
             id="path25" />
          <path
             d="m 40.001181 86.791048 v -11.582031 l 7.5 7.5 v 11.582031 z m 0 0"
             fill="none"
             stroke="#a1bde2"
             transform="matrix(1 0 0 1 4.455851 4.544889)"
             id="path26" />
          <path
             d="m 32.501181 79.291048 v -11.582031 l 7.5 7.5 v 11.582031 z m 0 0"
             fill="none"
             stroke="#a1bde2"
             transform="matrix(1 0 0 1 4.455851 4.544889)"
             id="path27" />
          <path
             d="m 32.001181 67.209017 l 0.5 0.5 v 10.582031 l -8 8 v -11.582031 z m 0 0"
             fill="none"
             stroke="#a1bde2"
             transform="matrix(1 0 0 1 4.455851 4.544889)"
             id="path28" />
          <path
             d="m 47.645712 70.853548 l 0.148437 0.144531 h 11.207032 v 12 h -10.792969 l -0.707031 -0.707031 v -11.582031 z m 0 0"
             fill="none"
             stroke="#a1bde2"
             transform="matrix(1 0 0 1 4.455851 4.544889)"
             id="path29" />
          <path
             d="m 40.001181 74.791048 v -11.582031 l 7.5 7.5 v 11.582031 z m 0 0"
             fill="none"
             stroke="#a1bde2"
             transform="matrix(1 0 0 1 4.455851 4.544889)"
             id="path30" />
          <path
             d="m 32.501181 67.291048 v -11.582031 l 7.5 7.5 v 11.582031 z m 0 0"
             fill="none"
             stroke="#a1bde2"
             transform="matrix(1 0 0 1 4.455851 4.544889)"
             id="path31" />
          <path
             d="m 32.001181 55.209017 l 0.5 0.5 v 10.582031 l -8 8 v -11.582031 z m 0 0"
             fill="none"
             stroke="#a1bde2"
             transform="matrix(1 0 0 1 4.455851 4.544889)"
             id="path32" />
          <path
             d="m 47.645712 58.853548 l 0.148437 0.144531 h 11.207032 v 12 h -10.792969 l -0.707031 -0.707031 v -11.582031 z m 0 0"
             fill="none"
             stroke="#a1bde2"
             transform="matrix(1 0 0 1 4.455851 4.544889)"
             id="path33" />
          <path
             d="m 40.001181 62.791048 v -11.582031 l 7.5 7.5 v 11.582031 z m 0 0"
             fill="none"
             stroke="#a1bde2"
             transform="matrix(1 0 0 1 4.455851 4.544889)"
             id="path34" />
          <path
             d="m 32.501181 55.291048 v -11.582031 l 7.5 7.5 v 11.582031 z m 0 0"
             fill="none"
             stroke="#a1bde2"
             transform="matrix(1 0 0 1 4.455851 4.544889)"
             id="path35" />
          <path
             d="m 32.001181 43.209017 l 0.5 0.5 v 10.582031 l -8 8 v -11.582031 z m 0 0"
             fill="none"
             stroke="#a1bde2"
             transform="matrix(1 0 0 1 4.455851 4.544889)"
             id="path36" />
          <path
             d="m 47.645712 46.853548 l 0.148437 0.144531 h 11.207032 v 12 h -10.792969 l -0.707031 -0.707031 v -11.582031 z m 0 0"
             fill="none"
             stroke="#a1bde2"
             transform="matrix(1 0 0 1 4.455851 4.544889)"
             id="path37" />
          <path
             d="m 40.001181 50.791048 v -11.582031 l 7.5 7.5 v 11.582031 z m 0 0"
             fill="none"
             stroke="#a1bde2"
             transform="matrix(1 0 0 1 4.455851 4.544889)"
             id="path38" />
          <path
             d="m 32.501181 43.291048 v -11.582031 l 7.5 7.5 v 11.582031 z m 0 0"
             fill="none"
             stroke="#a1bde2"
             transform="matrix(1 0 0 1 4.455851 4.544889)"
             id="path39" />
          <path
             d="m 32.001181 31.209017 l 0.5 0.5 v 10.582031 l -8 8 v -11.582031 z m 0 0"
             fill="none"
             stroke="#a1bde2"
             transform="matrix(1 0 0 1 4.455851 4.544889)"
             id="path40" />
          <path
             d="m 21.001181 89.998079 v -47"
             fill="none"
             stroke="#a1bde2"
             stroke-linecap="round"
             transform="matrix(1 0 0 1 4.455851 4.544889)"
             id="path41" />
          <path
             d="m 36.457031 19.542969 l 16 16 v 80 l -16 -16 z m 0 0"
             fill-opacity="0.101961"
             id="path42" />
          <path
             d="m 36.457031 19.542969 l -16 16 v 80 l 16 -16 z m 0 0"
             fill="#ffffff"
             fill-opacity="0.101961"
             id="path43" />
          <path
             d="m 54.144531 59 l 25.796875 -25.796875 c 3.125 -3.125 8.1875 -3.125 11.3125 0 l 25.828125 25.828125 c 3.125 3.125 3.125 8.1875 0 11.3125 l -25.796875 25.796875 c -3.125 3.125 -8.191406 3.125 -11.3125 0 l -25.828125 -25.828125 c -3.125 -3.121094 -3.125 -8.1875 0 -11.3125 z m 0 0"
             id="path44" />
          <path
             d="m 54.113281 50.03125 l 25.828125 -25.828125 c 3.125 -3.125 8.1875 -3.125 11.3125 0 l 25.828125 25.828125 c 3.125 3.125 3.125 8.1875 0 11.3125 l -25.828125 25.828125 c -3.125 3.125 -8.1875 3.125 -11.3125 0 l -25.828125 -25.828125 c -3.125 -3.125 -3.125 -8.1875 0 -11.3125 z m 0 0"
             fill="url(#b)"
             id="path45" />
          <path
             d="m 54.113281 41.03125 l 25.828125 -25.828125 c 3.125 -3.125 8.1875 -3.125 11.3125 0 l 25.828125 25.828125 c 3.125 3.125 3.125 8.1875 0 11.3125 l -25.828125 25.828125 c -3.125 3.125 -8.1875 3.125 -11.3125 0 l -25.828125 -25.828125 c -3.125 -3.125 -3.125 -8.1875 0 -11.3125 z m 0 0"
             fill="url(#c)"
             id="path46" />
          <path
             d="m 54.113281 38.03125 l 25.828125 -25.828125 c 3.125 -3.125 8.1875 -3.125 11.3125 0 l 25.828125 25.828125 c 3.125 3.125 3.125 8.1875 0 11.3125 l -25.828125 25.828125 c -3.125 3.125 -8.1875 3.125 -11.3125 0 l -25.828125 -25.828125 c -3.125 -3.125 -3.125 -8.1875 0 -11.3125 z m 0 0"
             fill="url(#d)"
             id="path47" />
          <path
             d="m 81.679688 40.535156 c -0.410157 0.210938 -0.457032 0.96875 -0.148438 2.273438 c 1.910156 2.132812 3.871094 3.496094 5.882812 4.09375 l 0.164063 -0.464844 c -0.804687 -1.203125 -1.101563 -2.109375 -0.894531 -2.71875 l 0.597656 -1.523438 c 0.90625 -0.507812 1.054688 -1.464843 0.449219 -2.867187 l -4.246094 0.296875 z m 16.96875 -8.183594 l 3.945312 3.941407 l 0.597656 2.121093 c -3.335937 3.933594 -7.332031 8.128907 -11.984375 12.582032 l -0.148437 1.96875 c 0.820312 1.613281 0.824218 2.824218 0.019531 3.632812 c -0.511719 0.90625 -1.625 1.613282 -3.347656 2.121094 c -1.304688 -0.90625 -2.464844 -1.160156 -3.480469 -0.765625 c -1.007812 0.410156 -2.019531 1.222656 -3.035156 2.4375 c -1.710938 0.300781 -2.722656 0.195313 -3.03125 -0.3125 l -3.332032 -3.632813 l 0.449219 -2.269531 c 1.921875 -1.523437 2.632813 -3.144531 2.136719 -4.855469 l -4.410156 -5.003906 l -3.628906 -4.523437 l -0.445313 -1.675781 l 2.566406 -2.570313 l 4.09375 -1.375 l 4.242188 -0.59375 l 1.507812 -0.613281 h 1.824219 l 4.542969 -1.527344 l 4.390625 -0.445312 l 1.375 -0.449219 h 2.71875 z m 0 0"
             fill="url(#e)"
             id="path48" />
          <path
             d="m 59.40625 67.960938 l 5.65625 5.65625 c 0.78125 0.78125 0.78125 2.046874 0 2.828124 s -2.046875 0.78125 -2.828125 0 l -5.65625 -5.65625 c -0.78125 -0.78125 -0.78125 -2.050781 0 -2.828124 c 0.78125 -0.78125 2.046875 -0.78125 2.828125 0 z m 0 0"
             fill="#fdf9f0"
             id="path49" />
          <path
             d="m 71.40625 79.960938 l 5.65625 5.65625 c 0.78125 0.78125 0.78125 2.046874 0 2.828124 s -2.046875 0.78125 -2.828125 0 l -5.65625 -5.65625 c -0.78125 -0.78125 -0.78125 -2.050781 0 -2.828124 c 0.78125 -0.78125 2.046875 -0.78125 2.828125 0 z m 0 0"
             fill="#fdf9f0"
             id="path50" />
        </g>
      </g>
    </g>
  </mask>
  <mask
     id="i">
    <g
       filter="url(#a)"
       id="g53">
      <rect
         fill-opacity="0.8"
         height="184.32"
         width="184.32"
         x="-28.16"
         y="-28.16"
         id="rect52" />
    </g>
  </mask>
  <linearGradient
     id="j"
     gradientTransform="matrix(0 0.37 -0.98462 0 295.38501 -30.360001)"
     gradientUnits="userSpaceOnUse"
     x1="300"
     x2="428"
     y1="235"
     y2="235">
    <stop
       offset="0"
       stop-color="#f9f06b"
       id="stop53" />
    <stop
       offset="1"
       stop-color="#f5c211"
       id="stop54" />
  </linearGradient>
  <clipPath
     id="k">
    <rect
       height="128"
       width="128"
       id="rect54" />
  </clipPath>
  <clipPath
     id="l">
    <rect
       height="128"
       width="128"
       id="rect55" />
  </clipPath>
  <path
     d="m 52.457031 35.542969 h 55 c 4.417969 0 8 3.582031 8 8 v 64 c 0 4.417969 -3.582031 8 -8 8 h -55 z m 0 0"
     fill="#5d8bbe"
     id="path55" />
  <path
     d="m 36.457031 19.542969 l 16 16 v 80 l -16 -16 z m 0 0"
     fill="#5d8bbe"
     id="path56" />
  <path
     d="m 36.457031 19.542969 l -16 16 v 80 l 16 -16 z m 0 0"
     fill="#5d8bbe"
     id="path57" />
  <path
     d="m 12.457031 43.542969 c 0 -4.417969 3.582031 -8 8 -8 v 80 c -4.417969 0 -8 -3.582031 -8 -8 z m 0 0"
     fill="#5d8bbe"
     id="path58" />
  <g
     fill="none"
     stroke="#a1bde2"
     id="g87">
    <path
       d="m 87.457032 87.542968 h 12 v 12 h -12 z m 0 0"
       id="path59" />
    <path
       d="m 87.457032 75.542968 h 12 v 12 h -12 z m 0 0"
       id="path60" />
    <path
       d="m 87.457032 63.542968 h 12 v 12 h -12 z m 0 0"
       id="path61" />
    <path
       d="m 87.457032 51.542968 h 12 v 12 h -12 z m 0 0"
       id="path62" />
    <path
       d="m 75.457032 87.542968 h 12 v 12 h -12 z m 0 0"
       id="path63" />
    <path
       d="m 75.457032 75.542968 h 12 v 12 h -12 z m 0 0"
       id="path64" />
    <path
       d="m 75.457032 63.542968 h 12 v 12 h -12 z m 0 0"
       id="path65" />
    <path
       d="m 75.457032 51.542968 h 12 v 12 h -12 z m 0 0"
       id="path66" />
    <path
       d="m 63.457032 87.542968 h 12 v 12 h -12 z m 0 0"
       id="path67" />
    <path
       d="m 63.457032 75.542968 h 12 v 12 h -12 z m 0 0"
       id="path68" />
    <path
       d="m 63.457032 63.542968 h 12 v 12 h -12 z m 0 0"
       id="path69" />
    <path
       d="m 63.457032 51.542968 h 12 v 12 h -12 z m 0 0"
       id="path70" />
    <path
       d="m 52.101563 87.398437 l 0.148437 0.144531 h 11.207032 v 12 h -10.792969 l -0.707031 -0.707031 v -11.582031 z m 0 0"
       id="path71" />
    <path
       d="m 44.457032 91.335937 v -11.582031 l 7.5 7.5 v 11.582031 z m 0 0"
       id="path72" />
    <path
       d="m 36.957032 83.835937 v -11.582031 l 7.5 7.5 v 11.582031 z m 0 0"
       id="path73" />
    <path
       d="m 36.457032 71.753906 l 0.5 0.5 v 10.582031 l -8 8 v -11.582031 z m 0 0"
       id="path74" />
    <path
       d="m 52.101563 75.398437 l 0.148437 0.144531 h 11.207032 v 12 h -10.792969 l -0.707031 -0.707031 v -11.582031 z m 0 0"
       id="path75" />
    <path
       d="m 44.457032 79.335937 v -11.582031 l 7.5 7.5 v 11.582031 z m 0 0"
       id="path76" />
    <path
       d="m 36.957032 71.835937 v -11.582031 l 7.5 7.5 v 11.582031 z m 0 0"
       id="path77" />
    <path
       d="m 36.457032 59.753906 l 0.5 0.5 v 10.582031 l -8 8 v -11.582031 z m 0 0"
       id="path78" />
    <path
       d="m 52.101563 63.398437 l 0.148437 0.144531 h 11.207032 v 12 h -10.792969 l -0.707031 -0.707031 v -11.582031 z m 0 0"
       id="path79" />
    <path
       d="m 44.457032 67.335937 v -11.582031 l 7.5 7.5 v 11.582031 z m 0 0"
       id="path80" />
    <path
       d="m 36.957032 59.835937 v -11.582031 l 7.5 7.5 v 11.582031 z m 0 0"
       id="path81" />
    <path
       d="m 36.457032 47.753906 l 0.5 0.5 v 10.582031 l -8 8 v -11.582031 z m 0 0"
       id="path82" />
    <path
       d="m 52.101563 51.398437 l 0.148437 0.144531 h 11.207032 v 12 h -10.792969 l -0.707031 -0.707031 v -11.582031 z m 0 0"
       id="path83" />
    <path
       d="m 44.457032 55.335937 v -11.582031 l 7.5 7.5 v 11.582031 z m 0 0"
       id="path84" />
    <path
       d="m 36.957032 47.835937 v -11.582031 l 7.5 7.5 v 11.582031 z m 0 0"
       id="path85" />
    <path
       d="m 36.457032 35.753906 l 0.5 0.5 v 10.582031 l -8 8 v -11.582031 z m 0 0"
       id="path86" />
    <path
       d="m 25.457032 94.542968 v -47"
       stroke-linecap="round"
       id="path87" />
  </g>
  <path
     d="m 36.457031 19.542969 l 16 16 v 80 l -16 -16 z m 0 0"
     fill-opacity="0.101961"
     id="path88" />
  <path
     d="m 36.457031 19.542969 l -16 16 v 80 l 16 -16 z m 0 0"
     fill="#ffffff"
     fill-opacity="0.101961"
     id="path89" />
  <g
     mask="url(#h)"
     id="g101">
    <g
       clip-path="url(#l)"
       id="g100">
      <g
         mask="url(#i)"
         id="g99">
        <g
           clip-path="url(#k)"
           id="g98">
          <path
             d="m 128 80.640625 v 47.359375 h -128 v -47.359375 z m 0 0"
             fill="url(#j)"
             id="path97" />
          <path
             d="m 13.308594 80.640625 l 47.355468 47.359375 h 21.214844 l -47.359375 -47.359375 z m 42.421875 0 l 47.363281 47.359375 h 21.214844 l -47.363282 -47.359375 z m 42.429687 0 l 29.839844 29.839844 v -21.210938 l -8.628906 -8.628906 z m -98.160156 7.90625 v 21.214844 l 18.238281 18.238281 h 21.214844 z m 0 0"
             id="path98" />
        </g>
      </g>
    </g>
  </g>
  <path
     d="m 54.144531 59 l 25.796875 -25.796875 c 3.125 -3.125 8.1875 -3.125 11.3125 0 l 25.828125 25.828125 c 3.125 3.125 3.125 8.1875 0 11.3125 l -25.796875 25.796875 c -3.125 3.125 -8.191406 3.125 -11.3125 0 l -25.828125 -25.828125 c -3.125 -3.121094 -3.125 -8.1875 0 -11.3125 z m 0 0"
     id="path90" />
  <path
     d="m 54.113281 50.03125 l 25.828125 -25.828125 c 3.125 -3.125 8.1875 -3.125 11.3125 0 l 25.828125 25.828125 c 3.125 3.125 3.125 8.1875 0 11.3125 l -25.828125 25.828125 c -3.125 3.125 -8.1875 3.125 -11.3125 0 l -25.828125 -25.828125 c -3.125 -3.125 -3.125 -8.1875 0 -11.3125 z m 0 0"
     fill="url(#b)"
     id="path91" />
  <path
     d="m 54.113281 41.03125 l 25.828125 -25.828125 c 3.125 -3.125 8.1875 -3.125 11.3125 0 l 25.828125 25.828125 c 3.125 3.125 3.125 8.1875 0 11.3125 l -25.828125 25.828125 c -3.125 3.125 -8.1875 3.125 -11.3125 0 l -25.828125 -25.828125 c -3.125 -3.125 -3.125 -8.1875 0 -11.3125 z m 0 0"
     fill="url(#c)"
     id="path92" />
  <path
     d="m 54.113281 38.03125 l 25.828125 -25.828125 c 3.125 -3.125 8.1875 -3.125 11.3125 0 l 25.828125 25.828125 c 3.125 3.125 3.125 8.1875 0 11.3125 l -25.828125 25.828125 c -3.125 3.125 -8.1875 3.125 -11.3125 0 l -25.828125 -25.828125 c -3.125 -3.125 -3.125 -8.1875 0 -11.3125 z m 0 0"
     fill="url(#d)"
     id="path93" />
  <path
     d="m 81.679688 40.535156 c -0.410157 0.210938 -0.457032 0.96875 -0.148438 2.273438 c 1.910156 2.132812 3.871094 3.496094 5.882812 4.09375 l 0.164063 -0.464844 c -0.804687 -1.203125 -1.101563 -2.109375 -0.894531 -2.71875 l 0.597656 -1.523438 c 0.90625 -0.507812 1.054688 -1.464843 0.449219 -2.867187 l -4.246094 0.296875 z m 16.96875 -8.183594 l 3.945312 3.941407 l 0.597656 2.121093 c -3.335937 3.933594 -7.332031 8.128907 -11.984375 12.582032 l -0.148437 1.96875 c 0.820312 1.613281 0.824218 2.824218 0.019531 3.632812 c -0.511719 0.90625 -1.625 1.613282 -3.347656 2.121094 c -1.304688 -0.90625 -2.464844 -1.160156 -3.480469 -0.765625 c -1.007812 0.410156 -2.019531 1.222656 -3.035156 2.4375 c -1.710938 0.300781 -2.722656 0.195313 -3.03125 -0.3125 l -3.332032 -3.632813 l 0.449219 -2.269531 c 1.921875 -1.523437 2.632813 -3.144531 2.136719 -4.855469 l -4.410156 -5.003906 l -3.628906 -4.523437 l -0.445313 -1.675781 l 2.566406 -2.570313 l 4.09375 -1.375 l 4.242188 -0.59375 l 1.507812 -0.613281 h 1.824219 l 4.542969 -1.527344 l 4.390625 -0.445312 l 1.375 -0.449219 h 2.71875 z m 0 0"
     fill="url(#e)"
     id="path94" />
  <path
     d="m 59.40625 67.960938 l 5.65625 5.65625 c 0.78125 0.78125 0.78125 2.046874 0 2.828124 s -2.046875 0.78125 -2.828125 0 l -5.65625 -5.65625 c -0.78125 -0.78125 -0.78125 -2.050781 0 -2.828124 c 0.78125 -0.78125 2.046875 -0.78125 2.828125 0 z m 0 0"
     fill="#fdf9f0"
     id="path95" />
  <path
     d="m 71.40625 79.960938 l 5.65625 5.65625 c 0.78125 0.78125 0.78125 2.046874 0 2.828124 s -2.046875 0.78125 -2.828125 0 l -5.65625 -5.65625 c -0.78125 -0.78125 -0.78125 -2.050781 0 -2.828124 c 0.78125 -0.78125 2.046875 -0.78125 2.828125 0 z m 0 0"
     fill="#fdf9f0"
     id="path96" />
</svg>
