<svg width="120" height="120" viewBox="0 0 120 120" fill="none" xmlns="http://www.w3.org/2000/svg">
<path d="M48 31H103C107.418 31 111 34.5817 111 39V103C111 107.418 107.418 111 103 111H48V31Z" fill="#3584E4"/>
<path d="M32 15L48 31V111L32 95V15Z" fill="#3584E4"/>
<path d="M32 15L16 31V111L32 95V15Z" fill="#3584E4"/>
<path d="M8 39C8 34.5817 11.5817 31 16 31V31V111V111C11.5817 111 8 107.418 8 103V39Z" fill="#3584E4"/>
<rect x="83" y="83" width="12" height="12" stroke="#99C1F1"/>
<rect x="83" y="71" width="12" height="12" stroke="#99C1F1"/>
<rect x="83" y="59" width="12" height="12" stroke="#99C1F1"/>
<rect x="83" y="47" width="12" height="12" stroke="#99C1F1"/>
<rect x="71" y="83" width="12" height="12" stroke="#99C1F1"/>
<rect x="71" y="71" width="12" height="12" stroke="#99C1F1"/>
<rect x="71" y="59" width="12" height="12" stroke="#99C1F1"/>
<rect x="71" y="47" width="12" height="12" stroke="#99C1F1"/>
<rect x="59" y="83" width="12" height="12" stroke="#99C1F1"/>
<rect x="59" y="71" width="12" height="12" stroke="#99C1F1"/>
<rect x="59" y="59" width="12" height="12" stroke="#99C1F1"/>
<rect x="59" y="47" width="12" height="12" stroke="#99C1F1"/>
<path d="M47.6464 82.8536L47.7929 83H48H59V95H48.2071L47.5 94.2929V82.7071L47.6464 82.8536Z" stroke="#99C1F1"/>
<path d="M40 86.7929V75.2071L47.5 82.7071V94.2929L40 86.7929Z" stroke="#99C1F1"/>
<path d="M32.5 79.2929V67.7071L40 75.2071V86.7929L32.5 79.2929Z" stroke="#99C1F1"/>
<path d="M32 67.2071L32.5 67.7071V78.2929L24.5 86.2929V74.7071L32 67.2071Z" stroke="#99C1F1"/>
<path d="M47.6464 70.8536L47.7929 71H48H59V83H48.2071L47.5 82.2929V70.7071L47.6464 70.8536Z" stroke="#99C1F1"/>
<path d="M40 74.7929V63.2071L47.5 70.7071V82.2929L40 74.7929Z" stroke="#99C1F1"/>
<path d="M32.5 67.2929V55.7071L40 63.2071V74.7929L32.5 67.2929Z" stroke="#99C1F1"/>
<path d="M32 55.2071L32.5 55.7071V66.2929L24.5 74.2929V62.7071L32 55.2071Z" stroke="#99C1F1"/>
<path d="M47.6464 58.8536L47.7929 59H48H59V71H48.2071L47.5 70.2929V58.7071L47.6464 58.8536Z" stroke="#99C1F1"/>
<path d="M40 62.7929V51.2071L47.5 58.7071V70.2929L40 62.7929Z" stroke="#99C1F1"/>
<path d="M32.5 55.2929V43.7071L40 51.2071V62.7929L32.5 55.2929Z" stroke="#99C1F1"/>
<path d="M32 43.2071L32.5 43.7071V54.2929L24.5 62.2929V50.7071L32 43.2071Z" stroke="#99C1F1"/>
<path d="M47.6464 46.8536L47.7929 47H48H59V59H48.2071L47.5 58.2929V46.7071L47.6464 46.8536Z" stroke="#99C1F1"/>
<path d="M40 50.7929V39.2071L47.5 46.7071V58.2929L40 50.7929Z" stroke="#99C1F1"/>
<path d="M32.5 43.2929V31.7071L40 39.2071V50.7929L32.5 43.2929Z" stroke="#99C1F1"/>
<path d="M32 31.2071L32.5 31.7071V42.2929L24.5 50.2929V38.7071L32 31.2071Z" stroke="#99C1F1"/>
<path d="M21 90L21 43" stroke="#99C1F1" stroke-linecap="round"/>
<path d="M32 15L48 31V111L32 95V15Z" fill="black" fill-opacity="0.1"/>
<path d="M32 15L16 31V111L32 95V15Z" fill="white" fill-opacity="0.1"/>
<rect x="44.0303" y="60.1123" width="52.4841" height="52.527" rx="8" transform="rotate(-45 44.0303 60.1123)" fill="black"/>
<rect x="44" y="51.1422" width="52.527" height="52.527" rx="8" transform="rotate(-45 44 51.1422)" fill="#391F04"/>
<rect x="44" y="42.1422" width="52.527" height="52.527" rx="8" transform="rotate(-45 44 42.1422)" fill="url(#paint0_radial_177_502)"/>
<rect x="44" y="39.1422" width="52.527" height="52.527" rx="8" transform="rotate(-45 44 39.1422)" fill="url(#paint1_radial_177_502)" fill-opacity="0.7"/>
<path d="M77.2237 35.992C76.8149 36.202 76.7652 36.9588 77.0746 38.2625C78.9859 40.3949 80.9471 41.7594 82.9579 42.356L83.1236 41.892C82.3171 40.6877 82.0188 39.7817 82.2287 39.174L82.8253 37.6493C83.7313 37.1411 83.8805 36.1854 83.2728 34.7822L79.0301 35.0805L77.2237 35.992ZM94.1943 27.8051L98.1386 31.7494L98.7352 33.8707C95.3986 37.804 91.4045 41.9969 86.7531 46.4495L86.6039 48.4216C87.4215 50.0347 87.427 51.2445 86.6205 52.0511C86.1123 52.9571 84.9964 53.6642 83.2728 54.1724C81.9691 53.2664 80.809 53.0123 79.7925 53.4101C78.7871 53.8189 77.7761 54.6309 76.7597 55.8463C75.0471 56.1446 74.0362 56.0396 73.7268 55.5314L70.3957 51.9019L70.8432 49.6315C72.7656 48.1068 73.4783 46.4881 72.9811 44.7756L68.5727 39.7706L64.9433 35.2463L64.4958 33.5724L67.0646 31.0036L71.1581 29.6281L75.4007 29.0315L76.9088 28.4183H78.7318L83.2728 26.8936L87.6646 26.4461L89.0401 25.9986H91.7581L94.1943 27.8051Z" fill="url(#paint2_radial_177_502)" fill-opacity="0.57"/>
<rect x="53.5355" y="62" width="12" height="4" rx="2" transform="rotate(45 53.5355 62)" fill="white"/>
<rect x="65.5355" y="74" width="12" height="4" rx="2" transform="rotate(45 65.5355 74)" fill="white"/>
<defs>
<radialGradient id="paint0_radial_177_502" cx="0" cy="0" r="1" gradientUnits="userSpaceOnUse" gradientTransform="translate(68.1424 75.2754) rotate(141.442) scale(31.197)">
<stop stop-color="#EBFA54"/>
<stop offset="1" stop-color="#F5BD1B"/>
</radialGradient>
<radialGradient id="paint1_radial_177_502" cx="0" cy="0" r="1" gradientUnits="userSpaceOnUse" gradientTransform="translate(70.2635 65.4057) rotate(90) scale(26.2635)">
<stop stop-color="#EBFA54"/>
<stop offset="1" stop-color="#F5BD1B"/>
</radialGradient>
<radialGradient id="paint2_radial_177_502" cx="0" cy="0" r="1" gradientUnits="userSpaceOnUse" gradientTransform="translate(78.9307 39.9308) rotate(135) scale(22.5 17)">
<stop offset="0.706522"/>
<stop offset="1" stop-opacity="0"/>
</radialGradient>
</defs>
</svg>
