<svg width="120" height="120" viewBox="0 0 120 120" fill="none" xmlns="http://www.w3.org/2000/svg">
<path d="M48 31H103C107.418 31 111 34.5817 111 39V103C111 107.418 107.418 111 103 111H48V31Z" fill="#3584E4"/>
<path d="M32 15L48 31V111L32 95V15Z" fill="#3584E4"/>
<path d="M32 15L16 31V111L32 95V15Z" fill="#3584E4"/>
<path d="M8 39C8 34.5817 11.5817 31 16 31V31V111V111C11.5817 111 8 107.418 8 103V39Z" fill="#3584E4"/>
<rect x="83" y="83" width="12" height="12" stroke="#99C1F1"/>
<rect x="83" y="71" width="12" height="12" stroke="#99C1F1"/>
<rect x="83" y="59" width="12" height="12" stroke="#99C1F1"/>
<rect x="83" y="47" width="12" height="12" stroke="#99C1F1"/>
<rect x="71" y="83" width="12" height="12" stroke="#99C1F1"/>
<rect x="71" y="71" width="12" height="12" stroke="#99C1F1"/>
<rect x="71" y="59" width="12" height="12" stroke="#99C1F1"/>
<rect x="71" y="47" width="12" height="12" stroke="#99C1F1"/>
<rect x="59" y="83" width="12" height="12" stroke="#99C1F1"/>
<rect x="59" y="71" width="12" height="12" stroke="#99C1F1"/>
<rect x="59" y="59" width="12" height="12" stroke="#99C1F1"/>
<rect x="59" y="47" width="12" height="12" stroke="#99C1F1"/>
<path d="M47.6464 82.8536L47.7929 83H48H59V95H48.2071L47.5 94.2929V82.7071L47.6464 82.8536Z" stroke="#99C1F1"/>
<path d="M40 86.7929V75.2071L47.5 82.7071V94.2929L40 86.7929Z" stroke="#99C1F1"/>
<path d="M32.5 79.2929V67.7071L40 75.2071V86.7929L32.5 79.2929Z" stroke="#99C1F1"/>
<path d="M32 67.2071L32.5 67.7071V78.2929L24.5 86.2929V74.7071L32 67.2071Z" stroke="#99C1F1"/>
<path d="M47.6464 70.8536L47.7929 71H48H59V83H48.2071L47.5 82.2929V70.7071L47.6464 70.8536Z" stroke="#99C1F1"/>
<path d="M40 74.7929V63.2071L47.5 70.7071V82.2929L40 74.7929Z" stroke="#99C1F1"/>
<path d="M32.5 67.2929V55.7071L40 63.2071V74.7929L32.5 67.2929Z" stroke="#99C1F1"/>
<path d="M32 55.2071L32.5 55.7071V66.2929L24.5 74.2929V62.7071L32 55.2071Z" stroke="#99C1F1"/>
<path d="M47.6464 58.8536L47.7929 59H48H59V71H48.2071L47.5 70.2929V58.7071L47.6464 58.8536Z" stroke="#99C1F1"/>
<path d="M40 62.7929V51.2071L47.5 58.7071V70.2929L40 62.7929Z" stroke="#99C1F1"/>
<path d="M32.5 55.2929V43.7071L40 51.2071V62.7929L32.5 55.2929Z" stroke="#99C1F1"/>
<path d="M32 43.2071L32.5 43.7071V54.2929L24.5 62.2929V50.7071L32 43.2071Z" stroke="#99C1F1"/>
<path d="M47.6464 46.8536L47.7929 47H48H59V59H48.2071L47.5 58.2929V46.7071L47.6464 46.8536Z" stroke="#99C1F1"/>
<path d="M40 50.7929V39.2071L47.5 46.7071V58.2929L40 50.7929Z" stroke="#99C1F1"/>
<path d="M32.5 43.2929V31.7071L40 39.2071V50.7929L32.5 43.2929Z" stroke="#99C1F1"/>
<path d="M32 31.2071L32.5 31.7071V42.2929L24.5 50.2929V38.7071L32 31.2071Z" stroke="#99C1F1"/>
<path d="M22 89L21.5 42" stroke="#99C1F1" stroke-linecap="round"/>
<path d="M32 15L48 31V111L32 95V15Z" fill="black" fill-opacity="0.1"/>
<path d="M32 15L16 31V111L32 95V15Z" fill="white" fill-opacity="0.1"/>
<rect x="44.0303" y="60.1123" width="52.4841" height="52.527" rx="8" transform="rotate(-45 44.0303 60.1123)" fill="black"/>
<rect x="44" y="51.1426" width="52.527" height="52.527" rx="8" transform="rotate(-45 44 51.1426)" fill="#391F04"/>
<rect x="44" y="42.1426" width="52.527" height="52.527" rx="8" transform="rotate(-45 44 42.1426)" fill="url(#paint0_radial_174_581)"/>
<rect x="44" y="39.1426" width="52.527" height="52.527" rx="8" transform="rotate(-45 44 39.1426)" fill="url(#paint1_radial_174_581)" fill-opacity="0.7"/>
<path d="M76.2624 36.5681C75.9219 36.8767 76.0698 37.6206 76.706 38.7998C79.1042 40.3648 81.3516 41.1752 83.4484 41.2311L83.4883 40.74C82.3976 39.7855 81.875 38.9876 81.9204 38.3463L82.1021 36.7191C82.8457 35.9937 82.7424 35.032 81.7923 33.8339L77.7714 35.2201L76.2624 36.5681ZM90.5358 24.2678L95.3666 27.0568L96.4919 28.9515C94.287 33.6143 91.5142 38.6981 88.1737 44.2028L88.5401 46.1464C89.7473 47.4929 90.0657 48.6601 89.4954 49.6479C89.239 50.6545 88.3441 51.6264 86.8108 52.5634C85.317 52.0257 84.1307 52.0805 83.2518 52.7278C82.3865 53.3829 81.6201 54.4289 80.9529 55.8659C79.3759 56.5973 78.3722 56.7576 77.9419 56.3467L73.7849 53.7031L73.6295 51.3942C75.0918 49.4239 75.3612 47.676 74.4377 46.1505L68.8842 42.457L64.2074 39.0261L63.342 37.5251L65.1584 34.379L68.7564 31.9909L72.7 30.3165L73.998 29.3339L75.7589 28.8621L79.7505 26.214L83.8769 24.6451L85.0897 23.8569L87.7151 23.1534L90.5358 24.2678Z" fill="url(#paint2_radial_174_581)" fill-opacity="0.57"/>
<rect x="53.5355" y="62" width="12" height="4" rx="2" transform="rotate(45 53.5355 62)" fill="white"/>
<rect x="65.5355" y="74" width="12" height="4" rx="2" transform="rotate(45 65.5355 74)" fill="white"/>
<defs>
<radialGradient id="paint0_radial_174_581" cx="0" cy="0" r="1" gradientUnits="userSpaceOnUse" gradientTransform="translate(68.1424 75.2758) rotate(141.442) scale(31.197)">
<stop stop-color="#EBFA54"/>
<stop offset="1" stop-color="#F5BD1B"/>
</radialGradient>
<radialGradient id="paint1_radial_174_581" cx="0" cy="0" r="1" gradientUnits="userSpaceOnUse" gradientTransform="translate(70.2635 65.4061) rotate(90) scale(26.2635)">
<stop stop-color="#EBFA54"/>
<stop offset="1" stop-color="#F5BD1B"/>
</radialGradient>
<radialGradient id="paint2_radial_174_581" cx="0" cy="0" r="1" gradientUnits="userSpaceOnUse" gradientTransform="translate(78.9307 39.9309) rotate(120) scale(22.5 17)">
<stop offset="0.706522"/>
<stop offset="1" stop-opacity="0"/>
</radialGradient>
</defs>
</svg>
