<svg width="121" height="121" viewBox="0 0 121 121" fill="none" xmlns="http://www.w3.org/2000/svg">
<path opacity="0.1" d="M60.5041 120.008C93.3674 120.008 120.008 93.3674 120.008 60.5041C120.008 27.6409 93.3674 1 60.5041 1C27.6409 1 1 27.6409 1 60.5041C1 93.3674 27.6409 120.008 60.5041 120.008Z" stroke="black" stroke-width="0.99" stroke-dasharray="0.99 0.99"/>
<path opacity="0.1" d="M104.085 9H16.9233C12.5471 9 8.99951 12.5476 8.99951 16.9238V104.086C8.99951 108.462 12.5471 112.01 16.9233 112.01H104.085C108.461 112.01 112.009 108.462 112.009 104.086V16.9238C112.009 12.5476 108.461 9 104.085 9Z" stroke="black" stroke-width="0.99" stroke-dasharray="0.99 0.99"/>
<path d="M49 32H104C108.418 32 112 35.5817 112 40V104C112 108.418 108.418 112 104 112H49V32Z" fill="#5D8BBE"/>
<path d="M33 16L49 32V112L33 96V16Z" fill="#5D8BBE"/>
<path d="M33 16L17 32V112L33 96V16Z" fill="#5D8BBE"/>
<path d="M9 40C9 35.5817 12.5817 32 17 32V32V112V112C12.5817 112 9 108.418 9 104V40Z" fill="#5D8BBE"/>
<rect x="84" y="84" width="12" height="12" stroke="#A1BDE2"/>
<rect x="84" y="72" width="12" height="12" stroke="#A1BDE2"/>
<rect x="84" y="60" width="12" height="12" stroke="#A1BDE2"/>
<rect x="84" y="48" width="12" height="12" stroke="#A1BDE2"/>
<rect x="72" y="84" width="12" height="12" stroke="#A1BDE2"/>
<rect x="72" y="72" width="12" height="12" stroke="#A1BDE2"/>
<rect x="72" y="60" width="12" height="12" stroke="#A1BDE2"/>
<rect x="72" y="48" width="12" height="12" stroke="#A1BDE2"/>
<rect x="60" y="84" width="12" height="12" stroke="#A1BDE2"/>
<rect x="60" y="72" width="12" height="12" stroke="#A1BDE2"/>
<rect x="60" y="60" width="12" height="12" stroke="#A1BDE2"/>
<rect x="60" y="48" width="12" height="12" stroke="#A1BDE2"/>
<path d="M48.6464 83.8536L48.7929 84H49H60V96H49.2071L48.5 95.2929V83.7071L48.6464 83.8536Z" stroke="#A1BDE2"/>
<path d="M41 87.7929V76.2071L48.5 83.7071V95.2929L41 87.7929Z" stroke="#A1BDE2"/>
<path d="M33.5 80.2929V68.7071L41 76.2071V87.7929L33.5 80.2929Z" stroke="#A1BDE2"/>
<path d="M33 68.2071L33.5 68.7071V79.2929L25.5 87.2929V75.7071L33 68.2071Z" stroke="#A1BDE2"/>
<path d="M48.6464 71.8536L48.7929 72H49H60V84H49.2071L48.5 83.2929V71.7071L48.6464 71.8536Z" stroke="#A1BDE2"/>
<path d="M41 75.7929V64.2071L48.5 71.7071V83.2929L41 75.7929Z" stroke="#A1BDE2"/>
<path d="M33.5 68.2929V56.7071L41 64.2071V75.7929L33.5 68.2929Z" stroke="#A1BDE2"/>
<path d="M33 56.2071L33.5 56.7071V67.2929L25.5 75.2929V63.7071L33 56.2071Z" stroke="#A1BDE2"/>
<path d="M48.6464 59.8536L48.7929 60H49H60V72H49.2071L48.5 71.2929V59.7071L48.6464 59.8536Z" stroke="#A1BDE2"/>
<path d="M41 63.7929V52.2071L48.5 59.7071V71.2929L41 63.7929Z" stroke="#A1BDE2"/>
<path d="M33.5 56.2929V44.7071L41 52.2071V63.7929L33.5 56.2929Z" stroke="#A1BDE2"/>
<path d="M33 44.2071L33.5 44.7071V55.2929L25.5 63.2929V51.7071L33 44.2071Z" stroke="#A1BDE2"/>
<path d="M48.6464 47.8536L48.7929 48H49H60V60H49.2071L48.5 59.2929V47.7071L48.6464 47.8536Z" stroke="#A1BDE2"/>
<path d="M41 51.7929V40.2071L48.5 47.7071V59.2929L41 51.7929Z" stroke="#A1BDE2"/>
<path d="M33.5 44.2929V32.7071L41 40.2071V51.7929L33.5 44.2929Z" stroke="#A1BDE2"/>
<path d="M33 32.2071L33.5 32.7071V43.2929L25.5 51.2929V39.7071L33 32.2071Z" stroke="#A1BDE2"/>
<path d="M22 91L22 44" stroke="#A1BDE2" stroke-linecap="round"/>
<path d="M33 16L49 32V112L33 96V16Z" fill="black" fill-opacity="0.1"/>
<path d="M33 16L17 32V112L33 96V16Z" fill="white" fill-opacity="0.1"/>
<rect x="45.0303" y="61.1123" width="52.4841" height="52.527" rx="8" transform="rotate(-45 45.0303 61.1123)" fill="black"/>
<rect x="45" y="52.1426" width="52.527" height="52.527" rx="8" transform="rotate(-45 45 52.1426)" fill="url(#paint0_radial_174_580)"/>
<rect x="45" y="43.1426" width="52.527" height="52.527" rx="8" transform="rotate(-45 45 43.1426)" fill="url(#paint1_radial_174_580)"/>
<rect x="45" y="40.1426" width="52.527" height="52.527" rx="8" transform="rotate(-45 45 40.1426)" fill="url(#paint2_radial_174_580)" fill-opacity="0.7"/>
<path d="M78.2237 36.9919C77.8149 37.2018 77.7652 37.9587 78.0746 39.2624C79.986 41.3948 81.9471 42.7593 83.9579 43.3559L84.1236 42.8918C83.3171 41.6875 83.0188 40.7816 83.2287 40.1739L83.8253 38.6492C84.7313 38.141 84.8805 37.1853 84.2728 35.7821L80.0302 36.0804L78.2237 36.9919ZM95.1943 28.8049L99.1386 32.7493L99.7352 34.8706C96.3986 38.8039 92.4045 42.9968 87.7531 47.4494L87.6039 49.4215C88.4215 51.0346 88.427 52.2444 87.6205 53.051C87.1123 53.9569 85.9964 54.6641 84.2728 55.1723C82.9691 54.2663 81.809 54.0122 80.7925 54.4099C79.7871 54.8187 78.7761 55.6308 77.7597 56.8461C76.0472 57.1445 75.0362 57.0395 74.7269 56.5313L71.3957 52.9018L71.8432 50.6313C73.7656 49.1066 74.4783 47.488 73.9811 45.7755L69.5727 40.7705L65.9433 36.2461L65.4958 34.5723L68.0646 32.0035L72.1581 30.628L76.4007 30.0313L77.9088 29.4181H79.7318L84.2728 27.8934L88.6646 27.446L90.0401 26.9985H92.7581L95.1943 28.8049Z" fill="url(#paint3_radial_174_580)" fill-opacity="0.57"/>
<rect x="54.5355" y="63" width="12" height="4" rx="2" transform="rotate(45 54.5355 63)" fill="#FDF9F0"/>
<rect x="66.5355" y="75" width="12" height="4" rx="2" transform="rotate(45 66.5355 75)" fill="#FDF9F0"/>
<defs>
<radialGradient id="paint0_radial_174_580" cx="0" cy="0" r="1" gradientUnits="userSpaceOnUse" gradientTransform="translate(48.636 100.832) rotate(-45) scale(69 22.3696)">
<stop stop-color="#7A4814"/>
<stop offset="1" stop-color="#391F04"/>
</radialGradient>
<radialGradient id="paint1_radial_174_580" cx="0" cy="0" r="1" gradientUnits="userSpaceOnUse" gradientTransform="translate(69.1424 76.2758) rotate(141.442) scale(31.197)">
<stop stop-color="#C06B27"/>
<stop offset="1" stop-color="#851714"/>
</radialGradient>
<radialGradient id="paint2_radial_174_580" cx="0" cy="0" r="1" gradientUnits="userSpaceOnUse" gradientTransform="translate(71.2635 66.4061) rotate(90) scale(26.2635)">
<stop stop-color="#F7C482"/>
<stop offset="1" stop-color="#F0A04B"/>
</radialGradient>
<radialGradient id="paint3_radial_174_580" cx="0" cy="0" r="1" gradientUnits="userSpaceOnUse" gradientTransform="translate(79.9307 40.9307) rotate(135) scale(22.5 17)">
<stop offset="0.706522"/>
<stop offset="1" stop-opacity="0"/>
</radialGradient>
</defs>
</svg>
